<svg width="342" height="390"
    xmlns="http://www.w3.org/2000/svg">
    <g id="#0170baff">
        <path id="svg_1" d="m0,0.46c113.92,-0.01 227.83,-0.02 341.75,0c-6.27,70.85 -12.44,141.7 -18.97,212.53c-3.88,45.27 -7.88,90.54 -12.1,135.78c-24.31,6.44 -48.38,13.78 -72.68,20.25c-22.32,6.55 -44.82,12.48 -67.15,18.98l-0.66,0c-21.25,-6.32 -42.71,-11.88 -63.96,-18.2c-25.08,-6.76 -49.94,-14.3 -75.03,-21.03c-3.27,-33.91 -6.22,-67.84 -9.13,-101.77c-5.49,-62.69 -11.46,-125.34 -16.74,-188.04c-1.83,-18.87 -3.14,-37.8 -5.33,-56.63l0,-1.87m171.41,27.95c-0.24,13.61 0.18,27.23 -0.24,40.83c-39.08,-0.14 -78.17,-0.03 -117.25,0.01c0.67,13.21 2.44,26.33 4.26,39.43c36.36,1.35 72.77,-0.05 109.13,1.04c-31.81,14.27 -64.01,27.71 -95.96,41.68c-2.74,1.22 -5.67,2.14 -8.12,3.92c0.27,14.51 2.61,28.94 3.64,43.42c19.38,-0.07 38.75,-0.38 58.13,-0.41c15.53,-0.08 31.07,0.23 46.6,-0.11c-0.74,23.86 0.23,47.75 -0.5,71.61c-10.45,-1.55 -20.77,-3.88 -31.18,-5.73c-8.21,-1.79 -16.62,-2.72 -24.71,-5.07c-1.15,-11.45 -1.95,-22.94 -2.97,-34.4c-2.34,-0.72 -4.82,-0.65 -7.24,-0.69c-11.74,0.07 -23.49,-0.04 -35.24,0.14c1.15,22.03 3.13,44.03 6.5,65.85c11.58,3.02 23.18,5.98 34.74,9.13c17.71,4.82 35.64,8.83 53.38,13.57c2.11,0.45 4.24,1.23 6.43,1.05c1.18,14.49 0.27,29.07 0.49,43.6c4.09,-0.66 8.11,-1.67 12.06,-2.89c33.58,-9.12 67.12,-18.41 100.68,-27.62c1.67,-13.2 2.45,-26.49 3.77,-39.72c3.49,-40.22 7.01,-80.44 10.67,-120.65c4.29,-46 8,-92.05 12.32,-138.05c-46.47,0.04 -92.93,-0.09 -139.39,0.06z" fill="#0170ba"/>
    </g>
    <g id="#29a9dfff">
        <path id="svg_2" d="m171.41,28.41c46.46,-0.15 92.92,-0.02 139.39,-0.06c-4.32,46 -8.03,92.05 -12.32,138.05c-3.66,40.21 -7.18,80.43 -10.67,120.65c-1.32,13.23 -2.1,26.52 -3.77,39.72c-33.56,9.21 -67.1,18.5 -100.68,27.62c-3.95,1.22 -7.97,2.23 -12.06,2.89c-0.22,-14.53 0.69,-29.11 -0.49,-43.6c0.3,-0.06 0.91,-0.18 1.21,-0.24c31.23,-7.84 62.25,-16.47 93.41,-24.59c3.94,-44.2 8.31,-88.38 11.08,-132.67c-26.5,0.14 -53.01,0.06 -79.51,0.17c-3.86,0.02 -7.72,0 -11.56,-0.28c14.26,-7.34 29.26,-13.16 43.9,-19.71c14.05,-6.37 28.27,-12.34 42.37,-18.59c2.72,-1.25 5.62,-2.29 8.01,-4.15c0.94,-3.45 0.89,-7.06 1.26,-10.59c0.81,-11.2 2.25,-22.34 2.79,-33.55c-37.53,-0.3 -75.06,-0.04 -112.6,-0.24c0.42,-13.6 0,-27.22 0.24,-40.83z" fill="#29a9df"/>
        <path id="svg_3" d="m171.6,198.22c18.12,-0.31 36.25,0.18 54.38,0.06c-1.01,18.53 -2.55,37.03 -3.51,55.56c-11.11,3.63 -22.39,6.7 -33.59,10.06c-5.97,1.82 -12.1,3.26 -17.78,5.93c0.73,-23.86 -0.24,-47.75 0.5,-71.61z" fill="#29a9df"/>
    </g>
    <g id="#cfcfcfff">
        <path id="svg_4" d="m53.92,69.25c39.08,-0.04 78.17,-0.15 117.25,-0.01c0.51,43 -0.13,86 0.43,128.98c-15.53,0.34 -31.07,0.03 -46.6,0.11c-19.38,0.03 -38.75,0.34 -58.13,0.41c-1.03,-14.48 -3.37,-28.91 -3.64,-43.42c2.45,-1.78 5.38,-2.7 8.12,-3.92c31.95,-13.97 64.15,-27.41 95.96,-41.68c-36.36,-1.09 -72.77,0.31 -109.13,-1.04c-1.82,-13.1 -3.59,-26.22 -4.26,-39.43z" fill="#cfcfcf"/>
        <path id="svg_5" d="m69.76,224.08c11.75,-0.18 23.5,-0.07 35.24,-0.14c2.42,0.04 4.9,-0.03 7.24,0.69c1.02,11.46 1.82,22.95 2.97,34.4c8.09,2.35 16.5,3.28 24.71,5.07c10.41,1.85 20.73,4.18 31.18,5.73c1,14.52 -0.75,29.14 0.92,43.61c-0.3,0.06 -0.91,0.18 -1.21,0.24c-2.19,0.18 -4.32,-0.6 -6.43,-1.05c-17.74,-4.74 -35.67,-8.75 -53.38,-13.57c-11.56,-3.15 -23.16,-6.11 -34.74,-9.13c-3.37,-21.82 -5.35,-43.82 -6.5,-65.85z" fill="#cfcfcf"/>
    </g>
    <g id="#ffffffff">
        <path id="svg_6" d="m171.17,69.24c37.54,0.2 75.07,-0.06 112.6,0.24c-0.54,11.21 -1.98,22.35 -2.79,33.55c-0.37,3.53 -0.32,7.14 -1.26,10.59c-2.39,1.86 -5.29,2.9 -8.01,4.15c-14.1,6.25 -28.32,12.22 -42.37,18.59c-14.64,6.55 -29.64,12.37 -43.9,19.71c3.84,0.28 7.7,0.3 11.56,0.28c26.5,-0.11 53.01,-0.03 79.51,-0.17c-2.77,44.29 -7.14,88.47 -11.08,132.67c-31.16,8.12 -62.18,16.75 -93.41,24.59c-1.67,-14.47 0.08,-29.09 -0.92,-43.61c5.68,-2.67 11.81,-4.11 17.78,-5.93c11.2,-3.36 22.48,-6.43 33.59,-10.06c0.96,-18.53 2.5,-37.03 3.51,-55.56c-18.13,0.12 -36.26,-0.37 -54.38,-0.06c-0.56,-42.98 0.08,-85.98 -0.43,-128.98z" fill="#ffffff"/>
    </g>
</svg>