<?xml version="1.0" standalone="no"?>
<!DOCTYPE svg PUBLIC "-//W3C//DTD SVG 20010904//EN"
 "http://www.w3.org/TR/2001/REC-SVG-20010904/DTD/svg10.dtd">
<svg version="1.0" xmlns="http://www.w3.org/2000/svg"
 width="200.000000pt" height="200.000000pt" viewBox="0 0 200.000000 200.000000"
 preserveAspectRatio="xMidYMid meet">
<metadata>
Created by potrace 1.16, written by Peter Selinger 2001-2019
</metadata>
<g transform="translate(0.000000,200.000000) scale(0.100000,-0.100000)"
fill="#000000" stroke="none">
<path d="M1052 1915 c-19 -8 -36 -24 -39 -35 -4 -16 -14 -20 -52 -20 -61 0
-293 -26 -362 -41 -169 -36 -306 -187 -395 -435 -67 -186 -79 -263 -78 -504 0
-206 1 -219 28 -305 44 -144 81 -211 167 -296 127 -128 293 -194 516 -206 293
-16 592 90 791 281 121 116 189 233 233 401 33 127 34 344 2 460 -80 292 -252
482 -580 640 -85 41 -165 75 -176 75 -12 -1 -37 -7 -55 -15z m31 -189 c35 -13
88 -38 118 -55 60 -33 84 -37 123 -20 22 10 34 6 102 -32 42 -24 96 -61 120
-82 66 -58 136 -171 170 -273 27 -82 29 -100 28 -234 0 -128 -4 -155 -28 -234
-54 -178 -161 -345 -283 -441 -138 -108 -292 -150 -513 -142 -160 6 -258 29
-376 87 -45 22 -105 60 -133 86 -239 215 -221 904 32 1181 59 63 107 94 208
129 168 59 326 70 432 30z"/>
<path d="M644 1242 c-18 -11 -34 -49 -34 -77 0 -35 50 -85 85 -85 33 0 75 42
75 75 0 33 -24 81 -45 89 -22 8 -67 7 -81 -2z"/>
<path d="M1222 1223 c-33 -28 -34 -97 -2 -131 60 -64 166 30 124 109 -22 43
-84 54 -122 22z"/>
<path d="M483 934 c-9 -24 15 -124 41 -169 98 -166 372 -260 611 -210 130 28
229 92 277 182 31 56 51 134 39 146 -5 5 -40 -22 -77 -61 -109 -110 -212 -152
-373 -152 -53 0 -124 7 -159 15 -140 33 -272 128 -308 220 -17 45 -40 58 -51
29z"/>
</g>
</svg>
