<svg height="512pt" viewBox="0 0 512 512" width="512pt" xmlns="http://www.w3.org/2000/svg"><path d="m462 0h-372.0625c-27.570312 0-50 22.429688-50 50v166c0 5.519531 4.476562 10 10 10s10-4.480469 10-10v-166c0-16.542969 13.457031-30 30-30h332.089844c-6.292969 8.363281-10.027344 18.753906-10.027344 30v412c0 16.542969-13.457031 30-30 30s-30-13.457031-30-30c0-5.523438-4.476562-10-10-10h-282.0625v-156c0-5.523438-4.476562-10-10-10s-10 4.476562-10 10v156h-29.9375c-5.523438 0-10 4.476562-10 10 0 27.570312 22.429688 50 50 50h335.730469c1.054687 0 2.070312-.164062 3.027343-.46875 24.382813-3.308594 43.242188-24.253906 43.242188-49.53125v-402h70c5.523438 0 10-4.476562 10-10 0-27.570312-22.429688-50-50-50zm-440.28125 472h311.289062c1.503907 7.386719 4.640626 14.183594 9.019532 20h-292.027344c-13.035156 0-24.152344-8.359375-28.28125-20zm411.996094-432c4.125-11.640625 15.25-20 28.285156-20s24.160156 8.359375 28.285156 20zm0 0"/><path d="m235.96875 54h-56c-5.523438 0-10 4.476562-10 10v54h-46c-5.523438 0-10 4.476562-10 10v70h-8.03125c-5.523438 0-10 4.476562-10 10 0 5.519531 4.476562 10 10 10h260.0625c5.523438 0 10-4.480469 10-10 0-5.523438-4.476562-10-10-10h-8.03125v-134c0-5.523438-4.476562-10-10-10h-56c-5.523438 0-10 4.476562-10 10v54h-36v-54c0-5.523438-4.476562-10-10-10zm-102 84h36v60h-36zm56-10v-54h36v124h-36zm112-54h36v124h-36zm-20 64v60h-36v-60zm0 0"/><path d="m165.9375 386c38.597656 0 70-31.402344 70-70s-31.402344-70-70-70-70 31.402344-70 70 31.402344 70 70 70zm41.695312-42.449219-17.554687-17.550781h24.851563c-1.296876 6.371094-3.820313 12.304688-7.296876 17.550781zm7.296876-37.550781h-38.992188v-38.996094c19.5625 3.988282 35.007812 19.433594 38.992188 38.996094zm-58.992188-38.996094v48.988282c0 .332031.015625.664062.050781.996093.015625.136719.039063.269531.058594.402344.027344.1875.050781.378906.085937.566406.03125.15625.074219.3125.113282.464844.039062.164063.078125.324219.125.484375.046875.152344.105468.296875.15625.449219.058594.160156.109375.316406.175781.472656.054687.136719.121094.269531.1875.402344.074219.164062.144531.328125.230469.488281.070312.125.144531.242188.21875.363281.09375.15625.183594.320313.289062.472657.085938.132812.183594.253906.273438.378906.101562.136718.199218.273437.308594.40625.167968.207031.347656.398437.53125.59375.042968.042968.082031.089844.125.136718l34.625 34.621094c-7.90625 5.242188-17.378907 8.304688-27.554688 8.304688-27.570312 0-50-22.429688-50-50 0-24.144532 17.207031-44.34375 40-48.992188zm0 0"/><path d="m366 262h-94c-5.523438 0-10 4.476562-10 10 0 5.519531 4.476562 10 10 10h94c5.523438 0 10-4.480469 10-10 0-5.523438-4.476562-10-10-10zm0 0"/><path d="m366 310h-94c-5.523438 0-10 4.476562-10 10 0 5.519531 4.476562 10 10 10h94c5.523438 0 10-4.480469 10-10 0-5.523438-4.476562-10-10-10zm0 0"/><path d="m366 358h-94c-5.523438 0-10 4.476562-10 10 0 5.519531 4.476562 10 10 10h94c5.523438 0 10-4.480469 10-10 0-5.523438-4.476562-10-10-10zm0 0"/><path d="m105.9375 425h260.0625c5.523438 0 10-4.480469 10-10 0-5.523438-4.476562-10-10-10h-260.0625c-5.523438 0-10 4.476562-10 10 0 5.519531 4.476562 10 10 10zm0 0"/><path d="m50 266c2.628906 0 5.210938-1.070312 7.070312-2.933594 1.859376-1.855468 2.929688-4.4375 2.929688-7.066406 0-2.632812-1.070312-5.210938-2.929688-7.070312-1.859374-1.859376-4.441406-2.929688-7.070312-2.929688s-5.210938 1.066406-7.070312 2.929688c-1.859376 1.859374-2.929688 4.4375-2.929688 7.070312 0 2.628906 1.070312 5.210938 2.929688 7.066406 1.859374 1.863282 4.441406 2.933594 7.070312 2.933594zm0 0"/></svg>