<?xml version="1.0" encoding="iso-8859-1"?>
<!-- Generator: Adobe Illustrator 19.0.0, SVG Export Plug-In . SVG Version: 6.00 Build 0)  -->
<svg version="1.1" id="Capa_1" xmlns="http://www.w3.org/2000/svg" xmlns:xlink="http://www.w3.org/1999/xlink" x="0px" y="0px"
	 viewBox="0 0 512.003 512.003" style="enable-background:new 0 0 512.003 512.003;" xml:space="preserve">
<path style="fill:#F2DFA6;" d="M478.175,448.287H154.077c-8.839,0-16.004-7.165-16.004-16.004V16.004
	C138.073,7.165,145.238,0,154.077,0h324.099c8.839,0,16.004,7.165,16.004,16.004v416.28
	C494.179,441.122,487.014,448.287,478.175,448.287z"/>
<g>
	<path style="fill:#394049;" d="M444.719,165.501h-52.672c-4.142,0-7.5-3.358-7.5-7.5s3.358-7.5,7.5-7.5h52.672
		c4.142,0,7.5,3.358,7.5,7.5S448.861,165.501,444.719,165.501z"/>
	<path style="fill:#394049;" d="M444.719,217.822h-52.672c-4.142,0-7.5-3.358-7.5-7.5s3.358-7.5,7.5-7.5h52.672
		c4.142,0,7.5,3.358,7.5,7.5S448.861,217.822,444.719,217.822z"/>
	<path style="fill:#394049;" d="M444.719,270.143h-52.672c-4.142,0-7.5-3.358-7.5-7.5s3.358-7.5,7.5-7.5h52.672
		c4.142,0,7.5,3.358,7.5,7.5S448.861,270.143,444.719,270.143z"/>
	<path style="fill:#394049;" d="M444.719,322.464h-52.672c-4.142,0-7.5-3.358-7.5-7.5s3.358-7.5,7.5-7.5h52.672
		c4.142,0,7.5,3.358,7.5,7.5S448.861,322.464,444.719,322.464z"/>
</g>
<path style="opacity:0.15;enable-background:new    ;" d="M419.21,36.861H138.073v395.422c0,8.839,7.165,16.004,16.004,16.004
	h281.137V52.864C435.214,44.026,428.049,36.861,419.21,36.861z"/>
<path style="fill:#76C9D2;" d="M386.161,512H62.062c-8.839,0-16.004-7.165-16.004-16.004V79.717c0-8.839,7.165-16.004,16.004-16.004
	h324.099c8.839,0,16.004,7.165,16.004,16.004v416.28C402.165,504.835,395,512,386.161,512z"/>
<rect x="44.925" y="371.19" style="fill:#507CDD;" width="357.24" height="84.31"/>
<rect x="354.631" y="63.713" style="fill:#F6D83E;" width="24.392" height="448.29"/>
<path style="fill:#FFFFFF;" d="M295.04,224.143H148.648c-5.84,0-10.575,4.735-10.575,10.575v42.563
	c0,5.84,4.735,10.575,10.575,10.575H295.04c5.84,0,10.575-4.735,10.575-10.575v-42.563
	C305.615,228.878,300.88,224.143,295.04,224.143z"/>
<g>
	<path style="fill:#394049;" d="M57.283,132.985H32.566c-8.142,0-14.743-6.601-14.743-14.743l0,0
		c0-8.142,6.601-14.743,14.743-14.743h24.717c8.143,0,14.743,6.601,14.743,14.743l0,0C72.026,126.385,65.425,132.985,57.283,132.985
		z"/>
	<path style="fill:#394049;" d="M57.283,217.301H32.566c-8.142,0-14.743-6.601-14.743-14.743l0,0
		c0-8.142,6.601-14.743,14.743-14.743h24.717c8.143,0,14.743,6.601,14.743,14.743l0,0C72.026,210.7,65.425,217.301,57.283,217.301z"
		/>
	<path style="fill:#394049;" d="M57.283,301.616H32.566c-8.142,0-14.743-6.601-14.743-14.743l0,0
		c0-8.142,6.601-14.743,14.743-14.743h24.717c8.143,0,14.743,6.601,14.743,14.743l0,0C72.026,295.015,65.425,301.616,57.283,301.616
		z"/>
	<path style="fill:#394049;" d="M57.283,385.931H32.566c-8.142,0-14.743-6.601-14.743-14.743l0,0
		c0-8.143,6.601-14.743,14.743-14.743h24.717c8.143,0,14.743,6.601,14.743,14.743l0,0C72.026,379.331,65.425,385.931,57.283,385.931
		z"/>
	<path style="fill:#394049;" d="M57.283,470.247H32.566c-8.142,0-14.743-6.601-14.743-14.743l0,0
		c0-8.142,6.601-14.743,14.743-14.743h24.717c8.143,0,14.743,6.601,14.743,14.743l0,0C72.026,463.646,65.425,470.247,57.283,470.247
		z"/>
	<path style="fill:#394049;" d="M266.338,263.5h-88.989c-4.142,0-7.5-3.358-7.5-7.5s3.358-7.5,7.5-7.5h88.989
		c4.142,0,7.5,3.358,7.5,7.5S270.48,263.5,266.338,263.5z"/>
</g>
<path style="opacity:0.15;enable-background:new    ;" d="M386.161,63.713h-29.11c8.839,0,16.004,7.165,16.004,16.004v416.28
	c0,8.839-7.165,16.004-16.004,16.004h29.111c8.839,0,16.004-7.165,16.004-16.004V79.717C402.165,70.878,395,63.713,386.161,63.713z"
	/>
<g>
</g>
<g>
</g>
<g>
</g>
<g>
</g>
<g>
</g>
<g>
</g>
<g>
</g>
<g>
</g>
<g>
</g>
<g>
</g>
<g>
</g>
<g>
</g>
<g>
</g>
<g>
</g>
<g>
</g>
</svg>
