<svg height="512pt" viewBox="-10 0 512 512.00125" width="512pt" xmlns="http://www.w3.org/2000/svg"><path d="m480.921875 129.078125-225.566406-126.539063c-6.039063-3.386718-13.539063-3.386718-19.574219 0l-225.566406 126.539063c-6.300782 3.535156-10.214844 10.21875-10.214844 17.441406 0 7.226563 3.914062 13.910157 10.214844 17.445313l58.347656 32.730468v110.324219c0 6.667969 3.304688 12.867188 8.832031 16.589844l11.929688 8.03125c-3.207031 5.570313-5.046875 12.015625-5.046875 18.890625v151.46875c0 5.523438 4.476562 10 10 10h56c5.523437 0 10-4.476562 10-10v-122.59375l74.125 49.902344c3.390625 2.285156 7.28125 3.425781 11.167968 3.425781 3.886719 0 7.777344-1.140625 11.167969-3.425781l157.007813-105.699219c5.527344-3.722656 8.832031-9.925781 8.832031-16.589844v-110.324219l58.347656-32.730468c6.300781-3.535156 10.214844-10.21875 10.214844-17.445313 0-7.222656-3.914063-13.90625-10.21875-17.441406zm-392.359375 78.839844 23.714844 13.300781v92.652344c-2.96875.8125-5.792969 1.972656-8.425782 3.4375l-15.289062-10.289063zm51.714844 152.648437v.117188 16.179687h-36.003906v-26.332031c0-9.925781 8.078124-18.003906 18.003906-18.003906 9.925781 0 18 8.078125 18 18.003906zm-36.003906 131.433594v-95.136719h36.003906v95.136719zm298.300781-184.980469-147.003907 98.964844v-41.457031c0-5.519532-4.476562-10-10-10-5.523437 0-10 4.480468-10 10v41.457031l-75.292968-50.6875v-4.769531c0-17.492188-11.882813-32.253906-28-36.65625v-81.433594l103.507812 58.066406c3.015625 1.691406 6.398438 2.539063 9.785156 2.539063 3.382813 0 6.765626-.847657 9.785157-2.539063l147.21875-82.585937zm6.144531-125.484375c-.691406.289063-1.335938.660156-1.9375 1.089844l-161.210938 90.433594-102.476562-57.484375 76.582031-43.078125c6.96875 5.003906 15.960938 8.027344 25.777344 8.027344 22.054687 0 40-15.253907 40-34 0-18.75-17.945313-34.003907-40-34.003907-22.058594 0-40.003906 15.253907-40.003906 34.003907 0 3.488281.625 6.855468 1.777343 10.027343l-84.558593 47.566407-38.308594-21.492188c-.601563-.429688-1.25-.796875-1.941406-1.085938l-62.417969-35.015624 225.566406-126.539063 225.570313 126.535156zm-183.269531-35.011718c0-7.589844 9.160156-14 20.003906-14 10.839844 0 20 6.410156 20 14 0 7.589843-9.160156 14-20 14-10.84375 0-20.003906-6.410157-20.003906-14zm0 0"/><path d="m245.570312 314.535156c-2.632812 0-5.210937 1.058594-7.070312 2.917969-1.859375 1.871094-2.929688 4.441406-2.929688 7.070313 0 2.640624 1.070313 5.210937 2.929688 7.082031 1.859375 1.859375 4.4375 2.917969 7.070312 2.917969 2.628907 0 5.210938-1.058594 7.070313-2.917969 1.859375-1.871094 2.929687-4.441407 2.929687-7.082031 0-2.628907-1.070312-5.207032-2.929687-7.070313-1.859375-1.859375-4.441406-2.917969-7.070313-2.917969zm0 0"/></svg>