<svg height="512pt" viewBox="-20 0 512 512" width="512pt" xmlns="http://www.w3.org/2000/svg"><path d="m133.46875 444c2.632812 0 5.203125-1.070312 7.070312-2.929688 1.859376-1.859374 2.929688-4.441406 2.929688-7.070312s-1.070312-5.210938-2.929688-7.070312c-1.867187-1.859376-4.449218-2.929688-7.070312-2.929688-2.640625 0-5.207031 1.070312-7.070312 2.929688-1.867188 1.859374-2.9375 4.441406-2.9375 7.070312s1.070312 5.210938 2.9375 7.070312c1.851562 1.859376 4.429687 2.929688 7.070312 2.929688zm0 0"/><path d="m173.464844 444h151.070312c5.523438 0 10-4.476562 10-10s-4.476562-10-10-10h-151.070312c-5.523438 0-10 4.476562-10 10s4.476562 10 10 10zm0 0"/><path d="m439.667969 252h-85.667969c11.113281-11.613281 17.960938-27.34375 17.960938-44.648438v-11.351562h1.453124c41.105469 0 74.546876-33.441406 74.546876-74.546875v-65.257813c0-17.753906-14.441407-32.195312-32.191407-32.195312h-43.808593v-14c0-5.523438-4.476563-10-10-10h-224c-5.519532 0-10 4.476562-10 10v197.351562c0 17.308594 6.851562 33.035157 17.960937 44.648438h-53.589844c-17.828125 0-32.332031 14.503906-32.332031 32.332031v59.335938c0 4.363281.875 8.527343 2.449219 12.332031h-30.117188c-17.828125 0-32.332031 14.503906-32.332031 32.332031v91.335938c0 17.828125 14.503906 32.332031 32.332031 32.332031h393.335938c17.828125 0 32.332031-14.503906 32.332031-32.332031v-91.335938c0-5.679687-1.476562-11.019531-4.0625-15.664062 10.691406-5.28125 18.0625-16.292969 18.0625-29v-59.335938c0-17.828125-14.503906-32.332031-32.332031-32.332031zm12.332031 32.332031v59.335938c0 6.800781-5.53125 12.332031-12.332031 12.332031h-38.53125v-84h38.53125c6.800781 0 12.332031 5.53125 12.332031 12.332031zm-359.667969 91.667969h274.804688v116h-279.339844v-116zm100.277344-104h188.523437v84h-233.339843v-84zm223.160156-228c6.722657 0 12.191407 5.472656 12.191407 12.195312v65.257813c0 30.078125-24.46875 54.546875-54.546876 54.546875h-1.453124v-132zm-128.875 69.433594 20.773438 13.085937v46.019531h-41.539063v-46.019531zm-138.933593 93.917968v-187.351562h128.9375v76.097656l-26.101563 16.441406c-2.90625 1.832032-4.667969 5.023438-4.667969 8.460938v61.539062c0 5.523438 4.476563 10 10 10h61.539063c5.519531 0 10-4.476562 10-10v-61.539062c0-3.4375-1.765625-6.628906-4.671875-8.460938l-26.101563-16.441406v-76.097656h55.066407v187.351562c0 24.621094-20.027344 44.648438-44.648438 44.648438h-114.703125c-24.617187 0-44.648437-20.027344-44.648437-44.648438zm-67.960938 136.316407v-59.335938c0-6.800781 5.53125-12.332031 12.332031-12.332031h35.464844v84h-35.464844c-6.800781 0-12.332031-5.53125-12.332031-12.332031zm-60 136v-91.335938c0-6.800781 5.53125-12.332031 12.332031-12.332031h35.464844v116h-35.464844c-6.800781 0-12.332031-5.53125-12.332031-12.332031zm418 0c0 6.800781-5.53125 12.332031-12.332031 12.332031h-38.53125v-116h38.53125c6.800781 0 12.332031 5.53125 12.332031 12.332031zm0 0"/><path d="m193.464844 324h145.070312c5.523438 0 10-4.476562 10-10s-4.476562-10-10-10h-145.070312c-5.523438 0-10 4.476562-10 10s4.476562 10 10 10zm0 0"/></svg>