<svg id="Capa_1" enable-background="new 0 0 512 512" height="512" viewBox="0 0 512 512" width="512" xmlns="http://www.w3.org/2000/svg"><g><g><g><g><path d="m420.366 28.666h-328.732c-14.219 0-25.745 11.527-25.745 25.745v431.844c0 14.219 11.527 25.745 25.745 25.745h328.732c14.219 0 25.745-11.527 25.745-25.745v-431.844c0-14.219-11.526-25.745-25.745-25.745z" fill="#f8e8bb"/><path d="m420.366 28.666h-28.506v483.334h28.506c14.219 0 25.745-11.527 25.745-25.745v-431.844c0-14.219-11.526-25.745-25.745-25.745z" fill="#ecd393"/><path d="m322.809 57.331h-133.618c-8.453 0-15.306-6.853-15.306-15.306v-26.719c0-8.453 6.853-15.306 15.306-15.306h133.617c8.453 0 15.306 6.853 15.306 15.306v26.719c.001 8.453-6.852 15.306-15.305 15.306z" fill="#676e84"/><path d="m322.809 0h-38.945v57.331h38.945c8.453 0 15.306-6.853 15.306-15.306v-26.719c0-8.453-6.853-15.306-15.306-15.306z" fill="#4a4e67"/></g></g><g><g><g><circle cx="256" cy="245.961" fill="#df705d" r="117.729"/><path d="m256 128.232c-9.336 0-18.417 1.087-27.126 3.141 51.943 12.25 90.603 58.904 90.603 114.588s-38.66 102.338-90.603 114.588c8.708 2.054 17.79 3.141 27.126 3.141 65.02 0 117.729-52.709 117.729-117.729s-52.709-117.729-117.729-117.729z" fill="#cf5748"/><path d="m256 128.232v117.729h117.729c0-65.02-52.709-117.729-117.729-117.729z" fill="#759ce7"/><path d="m256 128.232v13.218c37.717 19.619 63.477 59.056 63.477 104.51h54.252c0-65.019-52.709-117.728-117.729-117.728z" fill="#5881cc"/></g><path d="m339.751 328.7c21.008-21.263 33.977-50.487 33.977-82.739h-117.728z" fill="#eadb55"/><path d="m373.729 245.961h-54.252c0 18.34-4.194 35.701-11.675 51.176l31.949 31.563c21.008-21.264 33.978-50.487 33.978-82.739z" fill="#d1bc4a"/></g><g><g><path d="m373.728 410.948h-235.456c-4.267 0-7.726-3.459-7.726-7.726s3.459-7.726 7.726-7.726h235.457c4.267 0 7.726 3.459 7.726 7.726s-3.46 7.726-7.727 7.726z" fill="#676e84"/></g><g><path d="m373.728 446.315h-235.456c-4.267 0-7.726-3.459-7.726-7.726s3.459-7.726 7.726-7.726h235.457c4.267 0 7.726 3.459 7.726 7.726s-3.46 7.726-7.727 7.726z" fill="#676e84"/></g></g></g></g></g></svg>