<svg id="Capa_1" enable-background="new 0 0 512 512" height="512" viewBox="0 0 512 512" width="512" xmlns="http://www.w3.org/2000/svg"><g><g><g><g><path d="m316.72 160.703c-8.784 0-15.906-7.121-15.906-15.906v-55.197c0-12.247-9.963-22.21-22.21-22.21h-87.066c-12.247 0-22.21 9.963-22.21 22.21v55.197c0 8.784-7.121 15.906-15.906 15.906-8.784 0-15.906-7.121-15.906-15.906v-55.197c0-29.787 24.234-54.021 54.021-54.021h87.066c29.787 0 54.021 24.234 54.021 54.021v55.197c.001 8.785-7.12 15.906-15.904 15.906z" fill="#c3a2a2"/></g><path d="m422.62 275.677h-375.097c-26.246 0-47.523-21.277-47.523-47.522v185.715c0 26.246 21.277 47.523 47.523 47.523h375.097c26.246 0 47.523-21.277 47.523-47.523v-185.715c-.001 26.245-21.277 47.522-47.523 47.522z" fill="#b78e8e"/><path d="m407.959 238.461v-59.125c0-26.246-21.277-47.523-47.523-47.523h-312.913c-26.246 0-47.523 21.277-47.523 47.523v59.125c0 26.246 21.277 47.523 47.523 47.523h312.914c26.246-.001 47.522-21.277 47.522-47.523z" fill="#aa8080"/><path d="m422.62 131.813h-63.299c26.246 0 47.523 21.277 47.523 47.523v59.125c0 26.246-21.277 47.523-47.523 47.523h63.299c26.246 0 47.523-21.277 47.523-47.523v-59.125c-.001-26.246-21.277-47.523-47.523-47.523z" fill="#9d6b6b"/></g><g><g><g><circle cx="385.472" cy="349.893" fill="#f9c301" r="126.528"/><circle cx="385.472" cy="349.893" fill="#f6f9f9" r="97.665"/><path d="m385.06 252.229c-7.036.03-13.893.809-20.501 2.251 43.725 9.544 76.549 48.387 76.745 95.001.198 46.902-32.701 86.215-76.751 95.825 6.87 1.5 14.007 2.282 21.33 2.251 53.938-.227 97.48-44.137 97.252-98.076-.227-53.938-44.137-97.48-98.075-97.252z" fill="#e7ecf1"/><g><path d="m421.476 391.888c-1.913 0-3.83-.706-5.326-2.13l-36.005-34.269c-1.525-1.451-2.391-3.462-2.399-5.567l-.259-67.934c-.016-4.267 3.43-7.739 7.697-7.756h.03c4.254 0 7.709 3.44 7.725 7.697l.245 64.638 33.619 31.997c3.091 2.942 3.211 7.832.27 10.924-1.518 1.595-3.556 2.4-5.597 2.4z" fill="#8c9ba6"/></g></g></g><circle cx="385.472" cy="349.893" fill="#fc8086" r="16.292"/></g><g><g><path d="m90.416 331.237c-16.186 0-29.307-13.121-29.307-29.307v-55.632c0-5.815 4.714-10.529 10.528-10.529h37.556c5.815 0 10.528 4.714 10.528 10.529v55.632c.001 16.186-13.12 29.307-29.305 29.307z" fill="#f9efaf"/><path d="m61.109 271.459v30.471c0 16.186 13.121 29.307 29.307 29.307 16.186 0 29.307-13.121 29.307-29.307v-30.471z" fill="#ffd064"/></g></g></g></g></svg>