<svg id="Capa_1" enable-background="new 0 0 512 512" height="512" viewBox="0 0 512 512" width="512" xmlns="http://www.w3.org/2000/svg"><g><path d="m220.112 136.704h81.976v344.138h-81.976z" fill="#f9f6f9" transform="matrix(0 1 -1 0 569.872 47.673)"/><path d="m391.961 273.492v19.427c0 16.862-13.669 30.531-30.531 30.531h-288.445c5.57 12.158 17.844 20.604 32.092 20.604l328.092 5.707v-81.976z" fill="#efecef"/><path d="m124.312 273.492h329.69c.789 0 1.429-.64 1.429-1.429v-29.603c0-.789-.64-1.429-1.429-1.429h-329.71c-37.404.011-67.722 30.336-67.722 67.742 0 37.413 30.329 67.742 67.742 67.742h329.69c.789 0 1.429-.64 1.429-1.429v-29.603c0-.789-.64-1.429-1.429-1.429h-329.69c-19.485 0-35.281-15.796-35.281-35.281 0-19.485 15.795-35.281 35.281-35.281z" fill="#8993da"/><path d="m433.168 301.046h-305.767c-4.267 0-7.726 3.459-7.726 7.726s3.459 7.726 7.726 7.726h305.767z" fill="#efecef"/><path d="m380.825 316.499h52.343v-15.453h-42.302c-1.692 6.144-5.256 11.513-10.041 15.453z" fill="#e2dfe2"/><path d="m209.913 272.189h81.976v344.138h-81.976z" fill="#f9f6f9" transform="matrix(0 1 -1 0 695.158 193.357)"/><path d="m120.039 408.977v19.427c0 16.862 13.669 30.531 30.531 30.531h288.445c-5.57 12.158-17.844 20.604-32.092 20.604l-328.092 5.707v-81.976z" fill="#efecef"/><path d="m387.689 408.977h-329.691c-.789 0-1.429-.64-1.429-1.429v-29.603c0-.789.64-1.429 1.429-1.429h329.71c37.404.011 67.722 30.336 67.722 67.742 0 37.413-30.329 67.742-67.742 67.742h-329.69c-.789 0-1.429-.64-1.429-1.429v-29.603c0-.789.64-1.429 1.429-1.429h329.69c19.485 0 35.281-15.796 35.281-35.281 0-19.485-15.795-35.281-35.28-35.281z" fill="#e28086"/><path d="m78.832 436.531h305.767c4.267 0 7.726 3.459 7.726 7.726s-3.459 7.726-7.726 7.726h-305.767z" fill="#efecef"/><path d="m131.175 451.984h-52.343v-15.453h42.301c1.693 6.144 5.257 11.513 10.042 15.453z" fill="#e2dfe2"/><path d="m81.587 126.443v112.915c0 .924.749 1.672 1.672 1.672h128.046c10.697 0 20.957 4.25 28.521 11.814l14.069 14.069c1.163 1.163 3.048 1.163 4.211 0l14.069-14.069c7.564-7.564 17.823-11.814 28.521-11.814h128.046c.924 0 1.672-.749 1.672-1.672v-112.915z" fill="#a59da5"/><path d="m54.574 247.104-6.512-36.055-12.877-4.182-12.877 4.182-6.512 36.055c-.155.858.262 1.718 1.031 2.128 11.476 6.112 25.24 6.112 36.716 0 .769-.41 1.185-1.27 1.031-2.128z" fill="#ffe07d"/><path d="m510.739 105.992-254.326 64.753c-.271.069-.555.069-.825 0l-254.327-64.753c-1.141-.29-1.632-1.637-.947-2.594l73.504-102.699c.314-.439.821-.699 1.36-.699h361.644c.54 0 1.046.26 1.36.699l73.505 102.699c.684.957.193 2.303-.948 2.594z" fill="#a59da5"/><path d="m389.206 126.443v40.577c0 29.495-23.911 53.406-53.406 53.406h-254.213v18.931c0 .924.749 1.672 1.672 1.672h128.046c10.697 0 20.957 4.25 28.521 11.814l14.069 14.069c1.163 1.163 3.048 1.163 4.211 0l14.069-14.069c7.564-7.564 17.823-11.814 28.521-11.814h128.046c.924 0 1.672-.749 1.672-1.672v-112.914z" fill="#958b95"/><path d="m511.686 103.398-73.504-102.699c-.314-.439-.821-.699-1.36-.699h-25.601l18.918 26.432c20.085 28.063 5.668 67.543-27.775 76.058l-175.472 44.676c-7.939 2.021-16.258 2.021-24.197 0l-197.684-50.331-4.697 6.563c-.685.957-.193 2.304.947 2.594l254.326 64.753c.271.069.554.069.825 0l254.326-64.753c1.142-.291 1.633-1.637.948-2.594z" fill="#958b95"/><path d="m35.184 200.734c-4.267 0-7.726-3.459-7.726-7.726v-78.379c0-3.57 2.446-6.676 5.918-7.512l220.816-53.17c4.146-.998 8.321 1.554 9.32 5.703s-1.554 8.321-5.703 9.32l-214.899 51.746v72.292c0 4.266-3.459 7.726-7.726 7.726z" fill="#787078"/><path d="m48.353 211.049h-26.337c-.558 0-1.01-.452-1.01-1.01v-13.169c0-7.831 6.348-14.179 14.179-14.179 7.831 0 14.179 6.348 14.179 14.179v13.169c-.001.558-.453 1.01-1.011 1.01z" fill="#868086"/></g></svg>